<?xml version="1.0" encoding="UTF-8" standalone="no"?>
<!-- Created with Inkscape (http://www.inkscape.org/) -->

<svg
   xmlns:dc="http://purl.org/dc/elements/1.1/"
   xmlns:cc="http://creativecommons.org/ns#"
   xmlns:rdf="http://www.w3.org/1999/02/22-rdf-syntax-ns#"
   xmlns:svg="http://www.w3.org/2000/svg"
   xmlns="http://www.w3.org/2000/svg"
   xmlns:sodipodi="http://sodipodi.sourceforge.net/DTD/sodipodi-0.dtd"
   xmlns:inkscape="http://www.inkscape.org/namespaces/inkscape"
   id="svg2"
   version="1.1"
   inkscape:version="0.48.3.1 r9886"
   width="2560"
   height="2560"
   xml:space="preserve"
   sodipodi:docname="echojs_2048px (2).eps"><metadata
     id="metadata8"><rdf:RDF><cc:Work
         rdf:about=""><dc:format>image/svg+xml</dc:format><dc:type
           rdf:resource="http://purl.org/dc/dcmitype/StillImage" /><dc:title></dc:title></cc:Work></rdf:RDF></metadata><defs
     id="defs6" /><sodipodi:namedview
     pagecolor="#ffffff"
     bordercolor="#666666"
     borderopacity="1"
     objecttolerance="10"
     gridtolerance="10"
     guidetolerance="10"
     inkscape:pageopacity="0"
     inkscape:pageshadow="2"
     inkscape:window-width="959"
     inkscape:window-height="576"
     id="namedview4"
     showgrid="false"
     inkscape:zoom="0.15004828"
     inkscape:cx="589.44236"
     inkscape:cy="1280"
     inkscape:window-x="65"
     inkscape:window-y="24"
     inkscape:window-maximized="1"
     inkscape:current-layer="g12" /><g
     id="g10"
     inkscape:groupmode="layer"
     inkscape:label="ink_ext_XXXXXX"
     transform="matrix(1.25,0,0,-1.25,0,2560)"><g
       id="g12"
       transform="scale(0.139605,0.139605)"><path
         d="m 0,0 14670,0 0,14670 L 0,14670 0,0 z"
         style="fill:#aa0000;fill-opacity:1;fill-rule:nonzero;stroke:none"
         id="path14"
         inkscape:export-xdpi="100"
         inkscape:export-ydpi="100" /><path
         d="m 7335,13445.1 0,-300.8 308.01,0 0,-2449.8 -308.01,0 0,-300.9 916.88,0 0,1525.8 308.01,0 0,308 300.85,0 0,-1833.8 616.02,0 0,1833.8 -308.01,0 0,300.8 -608.86,0 0,-300.8 -308.01,0 0,1217.7 -916.88,0 z m -4584.38,-916.9 0,-300.8 -308.01,0 0,-1532.9 308.01,0 0,-300.9 1525.74,0 0,300.9 308.02,0 0,308 -608.87,0 0,-308 -916.87,0 0,916.9 1525.74,0 0,616 -308.02,0 0,300.8 -1525.74,0 z m 2442.62,0 0,-300.8 -300.85,0 0,-1532.9 300.85,0 0,-300.9 1532.9,0 0,300.9 300.85,0 0,308 -608.87,0 0,-308 -916.87,0 0,1532.9 916.87,0 0,-308 608.87,0 0,308 -300.85,0 0,300.8 -1532.9,0 z m 4892.36,0 0,-300.8 -307.99,0 0,-1532.9 307.99,0 0,-300.9 1525.8,0 0,300.9 308,0 0,1532.9 -308,0 0,300.8 -1525.8,0"
         style="fill:#ffffff;fill-opacity:1;fill-rule:nonzero;stroke:none"
         id="path16" /><path
         d="m 3058.64,12227.4 0,-308 916.87,0 0,308 -916.87,0 z m 7334.96,0 0,-1532.9 916.9,0 0,1532.9 -916.9,0"
         style="fill:#aa0000;fill-opacity:1;fill-rule:nonzero;stroke:none"
         id="path18" /><path
         d="m 4276.36,7943.86 0,-608.86 616.03,0 0,-4892.39 -1224.89,0 0,1833.75 -1224.89,0 0,-1833.75 616.03,0 0,-608.86 2442.61,0 0,608.86 608.86,0 0,4892.39 616.03,0 0,608.86 -2449.78,0 z m 3667.5,0 0,-608.86 -608.86,0 0,-1224.89 608.86,0 0,-608.86 616.03,0 0,-608.86 1217.72,0 0,-616.03 615.99,0 0,-1833.75 -1833.71,0 0,1224.89 -1224.89,0 0,-1224.89 608.86,0 0,-608.86 3058.64,0 0,608.86 608.9,0 0,1833.75 -608.9,0 0,616.03 -608.9,0 0,608.86 -1224.85,0 0,608.86 -608.86,0 0,1224.89 1833.71,0 0,-1224.89 1217.8,0 0,1224.89 -608.9,0 0,608.86 -3058.64,0"
         style="fill:#ffffff;fill-opacity:1;fill-rule:nonzero;stroke:none"
         id="path20" /></g></g></svg>